<svg xmlns="http://www.w3.org/2000/svg" viewBox="0 0 520 420" role="img" aria-labelledby="t"><title id="t">Calculadora de crédito</title><rect width="520" height="420" rx="32" fill="#F1F7FD"/><ellipse cx="260" cy="332" rx="168" ry="38" fill="#BED5F1" opacity=".58"/><g transform="translate(146 60) rotate(-5 114 144)"><rect width="228" height="300" rx="28" fill="#0B2C4D"/><rect x="28" y="28" width="172" height="58" rx="10" fill="#DFF4E7"/><text x="180" y="66" text-anchor="end" font-family="ui-monospace,Consolas" font-size="28" font-weight="700" fill="#0B2C4D">336.821</text><g fill="#F4F8FB"><rect x="28" y="112" width="42" height="42" rx="10"/><rect x="92" y="112" width="42" height="42" rx="10"/><rect x="156" y="112" width="42" height="42" rx="10"/><rect x="28" y="174" width="42" height="42" rx="10"/><rect x="92" y="174" width="42" height="42" rx="10"/><rect x="156" y="174" width="42" height="42" rx="10"/><rect x="28" y="236" width="42" height="42" rx="10"/><rect x="92" y="236" width="42" height="42" rx="10"/></g><rect x="156" y="236" width="42" height="42" rx="10" fill="#4ED27D"/></g><path d="M73 166c46-79 96-122 152-130" fill="none" stroke="#10743F" stroke-width="8" stroke-linecap="round" stroke-dasharray="3 22"/><path d="m210 24 21 10-18 15" fill="none" stroke="#10743F" stroke-width="8" stroke-linecap="round" stroke-linejoin="round"/></svg>
